<svg xmlns="http://www.w3.org/2000/svg" viewBox="0 0 1440 320"><path fill="#0099ff" fill-opacity="0.7" d="M0,96L24,90.7C48,85,96,75,144,106.7C192,139,240,213,288,256C336,299,384,309,432,309.3C480,309,528,299,576,277.3C624,256,672,224,720,192C768,160,816,128,864,133.3C912,139,960,181,1008,202.7C1056,224,1104,224,1152,208C1200,192,1248,160,1296,128C1344,96,1392,64,1416,48L1440,32L1440,320L1416,320C1392,320,1344,320,1296,320C1248,320,1200,320,1152,320C1104,320,1056,320,1008,320C960,320,912,320,864,320C816,320,768,320,720,320C672,320,624,320,576,320C528,320,480,320,432,320C384,320,336,320,288,320C240,320,192,320,144,320C96,320,48,320,24,320L0,320Z"></path></svg>