<svg xmlns="http://www.w3.org/2000/svg" viewBox="0 0 1440 320"><path fill="#0099ff" fill-opacity="0.7" d="M0,96L24,90.7C48,85,96,75,144,106.7C192,139,240,213,288,256C336,299,384,309,432,309.3C480,309,528,299,576,277.3C624,256,672,224,720,192C768,160,816,128,864,133.3C912,139,960,181,1008,202.7C1056,224,1104,224,1152,208C1200,192,1248,160,1296,128C1344,96,1392,64,1416,48L1440,32L1440,0L1416,0C1392,0,1344,0,1296,0C1248,0,1200,0,1152,0C1104,0,1056,0,1008,0C960,0,912,0,864,0C816,0,768,0,720,0C672,0,624,0,576,0C528,0,480,0,432,0C384,0,336,0,288,0C240,0,192,0,144,0C96,0,48,0,24,0L0,0Z"></path></svg>